<?xml version="1.0" encoding="UTF-8"?>
<svg id="Layer_1" data-name="Layer 1" xmlns="http://www.w3.org/2000/svg" viewBox="0 0 1000 1000">
  <defs>
    <style>
      .cls-1 {
        fill: #ef4e38;
      }

      .cls-2 {
        fill: #249dd8;
      }
    </style>
  </defs>
  <path class="cls-1" d="M510.3,513.59c1.42-2.27,3.4-10.47,5.61-11.48.78-.36,1.5-.27,2.26.09,1.87.89,4.01,9.91,5.98,11.7,2.11.62,12.08.71,13.18,1.75.63.6.86,2.29.21,2.98l-9.3,8.22c.21,3.15,2.65,8.56,2.55,11.43-.04,1.07-1.2,2.3-2.2,2.47-2.34.41-8.84-5.65-11.69-6.2-1.54,0-8,5.5-10.4,6.09-6.62,1.61-.4-11.28-.88-13.73-.49-.76-1.21-1.4-1.86-2.01-1.52-1.44-7.46-5.57-7.79-7.16-.81-3.85,6.21-2.97,8.77-3.25,1.03-.11,5.13-.51,5.59-.89Z"/>
  <path class="cls-2" d="M412.13,528.65c.62-7.41,5.33-13.42,12.96-14.22,18.61.89,38.53-1.31,57-.05,9.97.68,14.56,7.03,13.79,16.79-.76,9.66-7.47,12.75-16.18,13.22-10.03.53-20.49-.41-30.56.03-1.63-.1-4.04,2.58-4.04,3.98v12.92c10.74-2.46,20.55-7.75,31.92-6.83,10.41.85,14.66,9.06,12.85,18.78-2.25,12.1-15.93,11.92-25.52,9.93-6.62-1.37-12.86-4.4-19.55-5.55-.42,9.81.56,20.08,0,29.85-.5,8.68-4.11,15.15-13.52,15.89-9.21.72-16.87-3.82-17.66-13.51-.66-8.1-.42-20.28-.02-28.52.17-3.56.79-7.96,1.64-11.42,2.08-8.38,7.58-15.86,15.31-19.77l-11.61,41.07c-2.4-.23.92,24.11-1.46,23.52-6.84-1.71-4.86-75.9-5.36-82.53v-3.56Z"/>
  <path class="cls-2" d="M488.16,435.39v2.68c13.64.37,22.41,9.13,24.02,22.46,1.8,14.88-3.5,30.1-18.74,34.94-7.5,2.38-14.13,2-21.75,1.98-22.98-.05-49.93,3.64-55.91-25.17-2.46-11.86-1.77-26.83,3.13-37.98,2.87-6.54,7.62-13.67,14.32-16.6l-12.7,49.62c-10.48,16.45-6.4-55.82-6.84-66.31-.44-10.8,2.75-21.59,14.61-22.36,16.52.71,33.77-.91,50.2.02,10.67.6,20.12,3.99,25.55,13.65,8.28,14.73,4.26,41.39-15.9,43.07ZM450.08,411.42c-2.87.35-4.02,1.3-4.36,4.26-.27,2.38-.33,10.91.9,12.7.83,1.22,3.46,1.58,4.85,1.68,5.33.39,17.41.5,22.3-.89,5.45-1.56,6.87-6.43,5.65-11.61-.56-2.37-1.59-3.81-3.82-4.79-4.39-1.93-20.42-1.96-25.51-1.35ZM446.98,461.72c.71.73,2.31,1.18,3.32,1.29,4.95.51,19.89.54,24.45-.49,6.18-1.41,8.02-5.46,7.49-11.54-.4-4.64-3.04-7.02-7.43-8.02-4.52-1.02-19.54-.9-24.53-.45-1.82.16-3.36.68-4.06,2.47-.88,2.25-.82,12.96-.03,15.3.15.44.47,1.12.79,1.44Z"/>
  <path class="cls-2" d="M771.14,377.86c41.35-2.74,61.65,26.12,59.76,65.1-1.35,27.71-16.64,51.73-45.89,54.8-44.89,4.7-66.2-28.75-61.59-70.2,2.97-26.67,19.79-47.85,47.72-49.7ZM772.33,416.77c-13.71.59-30.15,2.93-28.76,20.56,1.08,13.61,14.9,16.8,26.28,17.38,14.69.74,40.95.95,40.57-19.77-.35-18.6-24.56-18.75-38.09-18.17Z"/>
  <path class="cls-2" d="M570.37,377.86c14.04-.91,21.87,3.95,28.43,15.94,9.08,22.29,17.23,45.26,24.8,68.16,4.22,12.76,9.62,31.95-9.15,35.41-14.84,2.74-28.47-4.14-25.47-21.01.45-2.52,3.66-9.01-.57-9.5-10.04.7-21.31-.91-31.21,0-4.62.42-.77,7.57-.47,10.59,1.54,15.3-9.03,22.15-23.24,20.27-15.35-2.03-17.83-14.7-14.29-27.88,7.86-21.51,14.61-43.49,22.71-64.9,5.44-14.36,11.31-25.98,28.46-27.08ZM584.69,444l-8.89-28.38c-1.74-2.92-4.88-2.34-6.19.68-3.44,7.94-4.89,18.07-8.25,26.2l-.13,1.5h23.46Z"/>
  <path class="cls-2" d="M601.62,588.94v-58.67c-.52-21.09,30.94-22.26,31.2-.89-1,23.76,1.29,48.56,0,72.2-.79,14.52-8.18,23.01-23.34,22.12-13.47-.79-18.68-9.54-22.49-21.17-3.95-12.05-6.52-25.84-10.9-37.51-.74-1.97-1.67-3.81-4.19-2.97-1.15.38-1.65,2.48-1.76,3.58-1.36,13.54,1.02,29.3,0,43.07-1.34,18.2-25.35,20.25-30.1,3.64-.89-27.58-.75-55.52-.07-83.11,2.51-13.15,16.16-17.97,28.08-14.4,8.82,2.64,12.26,9.95,14.93,18.04,5.95,18.07,10.3,37.01,16.11,55.17.31,1.25,1.51.87,2.53.89Z"/>
  <path class="cls-2" d="M659.21,550l-10.23,55.14c-12.69,1.17-8.86-65.71-7.87-77.53.59-7.07,6-13.02,13.2-13.53,26.28.38,57.16-4.83,71.89,22.58,9.92,18.45,9.64,54.52-3.43,71.43-11.71,15.16-35.27,16.87-52.97,14.97-25.05-2.7-30.22-23.45-27.17-45.51,1.4-10.09,6.88-23.05,16.57-27.54ZM675.2,543.87c-2.69.37-4.11,1.82-4.38,4.53-1.17,11.69.88,25.25-.02,37.13.24,2.7,1.56,4.28,4.32,4.59,4.36.49,13.69.25,17.75-1.26,15.26-5.65,14.83-37.98-.09-43.74-4.05-1.56-13.28-1.85-17.59-1.26Z"/>
  <path class="cls-2" d="M783.61,513.29l4.68-.1c15.79.39,44.12,5.16,38.6,27.34-.89,3.57-3.59,6.94-6.87,8.57-12.34,6.16-30.12-9.06-44-3.32-4.59,1.9-5.11,6.7-.56,9.05,6.92,3.58,18.73,4.96,26.57,7.29,19.8,5.9,33.38,15.44,27.79,38.64-7.37,30.57-63.12,27.05-82.51,11.33-8.53-6.92-11.17-19.29-2.99-27.62,12.26-12.48,29.53,1.88,43.08,3.57,4.26.53,14.28.77,14.13-5.49-.11-4.54-6.19-6.44-9.76-7.49-16.87-4.95-47.07-7.58-48.49-30.22-1.5-23.91,20.57-30.9,40.34-31.56Z"/>
  <path class="cls-2" d="M649.96,378.75c8.2-.84,16.8,2.19,18.98,10.84.89,24.65.15,49.46.37,74.17.75,9.53,7.58,3.25,12.18.87,6.89-3.57,13.26-7.1,21.24-7.56,15.78-.92,25.04,7.53,23.6,23.6-.93,10.44-9.38,15.76-19.16,16.48-14.72-.66-30.21.89-44.84,0-16.84-1.03-25.33-8.56-26.3-25.68l.02-79.6c.75-7.43,6.62-12.39,13.89-13.13Z"/>
  <path class="cls-2" d="M513.64,544.48c8.62-.89,15.69,2.41,16.7,11.63l-.09,56.06c-1.8,15.03-26.14,15.22-27.83.08l.03-56.99c1.03-6.21,4.88-10.13,11.19-10.78Z"/>
  <path class="cls-1" d="M220.68,376.08c.17.27.62.16.9.17,21.31.22,42.96,1.19,64.2,2.95,12.02,1,25.57,1.64,36.5,6.9,25.16,12.11,39.86,39.92,33.95,67.66-3.06,14.36-11.79,26.72-23.69,35.11,10.38,5.16,21.53,7.52,30.7,14.99,27.4,22.35,33.35,61.25,13.06,90.53-13.16,19-34.12,29.08-57.11,29.36-.28,0-.73-.11-.9.17h-.66c-.17-.27-.62-.16-.9-.17-1.42-.01-2.84-.02-4.26,0-.28,0-.73-.1-.9.17h-114.8c-1.36-.32-2.77-.31-4.15-.52-8.1-1.23-17.06-5.54-20.99-13.07-2.68-5.13-1.54-10.59-2.37-16.14-.04-.29-.03-.57-.33-.74v-2.78c.64-1.56.48-3.48.83-5.15v-178.07c.95-18.26,18.73-31.54,36.28-31.19l.4-.17h14.25ZM259.78,400.53c-4.58.44-7.14,7.21-8.72,10.93-2.36,5.57-4.11,12.5-6.88,17.69-.97,1.82-1.41,1.68-3.33,2.07-7.05,1.43-14.12,1.49-21.24,1.85-4.67.24-15.05.83-12.81,8.23.83,2.74,7.62,8.13,10.03,10.12,4.34,3.58,9.6,7.04,13.26,11.3.98,1.14,1.47,1.6,1.39,3.2-.27,5.07-3.17,12.37-4.34,17.61-1.15,5.16-4,17.02,4.75,16.38,5.8-.43,17.35-10.03,22.86-13.33,1.17-.7,4.06-2.52,5.31-2.56,1.39-.05,4.78,1.86,6.08,2.6,4.59,2.62,8.85,5.97,13.33,8.78,3.39,2.12,8.86,6.09,12.75,3.6,4.62-2.96,3.71-7.41,2.72-12.03-1.63-7.6-5-14.85-5.62-22.65l23.8-21.08c1.56-1.76.98-6.67-1.01-7.84-2.04-1.2-8.39-1.73-10.95-1.99-6.5-.66-13.38-.66-19.79-1.66-2.31-.36-2.63-.29-3.98-2.25-3.79-5.54-6.08-14.16-8.87-20.44-1.71-3.85-3.63-9.02-8.75-8.52ZM219.99,531.09c-7.02.35-10.61,6.08-10.45,12.65.57,23.68,17.39,44.79,40.09,50.97,30.9,8.42,62.52-11.26,68.27-42.68.66-3.61,1.47-9.82.43-13.26-2.05-6.74-9.98-9.69-16.04-6.12-6.76,3.97-4.71,10.45-6.19,16.9-6.01,26.14-39.87,34.17-57.07,13.51-5.72-6.87-6.87-12.62-7.54-21.29-.47-6.12-5.17-11-11.5-10.68Z"/>
</svg>